<?xml version="1.0" standalone="no"?>
<!DOCTYPE svg PUBLIC "-//W3C//DTD SVG 20010904//EN"
 "http://www.w3.org/TR/2001/REC-SVG-20010904/DTD/svg10.dtd">
<svg version="1.0" xmlns="http://www.w3.org/2000/svg"
 width="217" height="100" viewBox="0 0 833.000000 833.000000"
 preserveAspectRatio="xMidYMid meet">

<g transform="translate(0.000000,833.000000) scale(0.100000,-0.100000)"
 stroke="none">
<path d="M1440 4160 l0 -2730 2725 0 2725 0 0 2730 0 2730 -2725 0 -2725 0 0
-2730z m1837 1435 c128 -346 233 -631 233 -633 0 -1 -43 -1 -97 0 l-96 3 -61
180 -61 180 -250 0 -250 0 -64 -182 -64 -183 -89 0 c-68 0 -89 3 -85 13 2 6
104 284 225 617 121 333 224 613 227 623 7 16 19 17 104 15 l96 -3 232 -630z
m1105 606 c76 -29 156 -103 193 -178 28 -54 30 -65 30 -173 0 -105 -2 -120
-28 -171 -31 -65 -99 -132 -160 -159 -67 -30 -159 -40 -364 -40 l-193 0 0
-260 0 -260 -85 0 -85 0 0 636 0 636 318 -4 c302 -4 320 -5 374 -27z m580
-438 l3 -468 26 -56 c42 -89 114 -132 244 -145 76 -8 176 9 230 39 53 30 101
96 114 157 7 33 11 212 11 495 l0 445 85 0 86 0 -3 -492 -3 -493 -32 -67 c-74
-157 -218 -232 -448 -232 -262 0 -418 100 -471 299 -11 38 -14 159 -14 518 l0
467 84 0 85 0 3 -467z m633 -948 c185 -39 305 -155 332 -322 l6 -33 -87 0
c-77 0 -86 2 -86 19 0 63 -67 148 -142 182 -46 21 -69 24 -164 24 -103 0 -114
-2 -169 -30 -143 -73 -139 -240 7 -308 29 -14 134 -44 233 -67 218 -51 303
-88 368 -160 59 -65 81 -130 80 -236 0 -65 -5 -92 -25 -136 -71 -154 -218
-229 -448 -229 -130 0 -202 15 -300 63 -130 64 -204 169 -234 336 l-5 32 88 0
88 0 7 -41 c15 -95 83 -181 175 -221 67 -30 248 -37 321 -13 97 32 160 112
160 205 0 49 -26 115 -56 142 -39 34 -137 70 -308 113 -198 49 -265 76 -326
131 -63 57 -90 121 -90 215 0 43 7 95 16 122 57 169 310 264 559 212z m-3035
-560 l0 -555 328 -2 327 -3 3 -77 3 -78 -416 0 -415 0 0 635 0 635 85 0 85 0
0 -555z m1020 -80 l0 -636 -85 3 -85 3 0 628 c0 345 0 629 0 632 0 3 38 5 85
5 l85 0 0 -635z m839 616 c9 -16 461 -1240 461 -1248 0 -2 -42 -3 -94 -3 l-94
0 -63 185 -64 185 -249 -2 -249 -3 -62 -180 -63 -180 -90 -3 -91 -3 13 38 c85
238 440 1202 447 1215 8 15 24 18 99 18 77 0 91 -3 99 -19z m-1296 -1397 c173
-39 322 -158 396 -315 56 -116 75 -222 68 -368 -9 -193 -66 -333 -186 -451
-270 -266 -757 -208 -949 113 -97 162 -124 410 -66 607 61 209 231 371 434
414 89 20 217 19 303 0z m1527 -89 l0 -75 -345 0 -345 0 2 -187 3 -188 288 -3
287 -2 0 -75 0 -75 -290 0 -290 0 0 -290 0 -290 -85 0 -85 0 0 630 0 630 430
0 430 0 0 -75z m1190 0 l0 -75 -210 0 -210 0 0 -555 0 -555 -85 0 -85 0 0 555
0 555 -210 0 -210 0 0 75 0 75 505 0 505 0 0 -75z"/>
<path d="M2916 5978 c-16 -57 -60 -191 -97 -298 -38 -107 -69 -198 -69 -202 0
-5 89 -8 198 -8 l199 0 -74 213 c-40 116 -83 254 -95 304 -13 51 -26 93 -29
93 -3 0 -18 -46 -33 -102z"/>
<path d="M3862 5848 l3 -223 160 -3 c184 -3 274 9 327 44 101 66 117 255 29
343 -54 54 -91 61 -320 61 l-201 0 2 -222z"/>
<path d="M4310 4644 c0 -28 -57 -213 -125 -403 -36 -102 -65 -186 -65 -188 0
-2 90 -3 199 -3 l200 0 -78 228 c-43 125 -87 262 -97 305 -16 70 -34 102 -34
61z"/>
<path d="M2847 3246 c-205 -59 -332 -276 -314 -536 15 -207 105 -358 255 -428
52 -25 67 -27 182 -27 119 0 128 2 190 31 159 75 250 245 250 463 -1 229 -84
387 -246 467 -67 34 -83 37 -172 40 -62 2 -114 -2 -145 -10z"/>
</g>
</svg>
